<svg xmlns="http://www.w3.org/2000/svg" width="36" height="35" fill="none"><g clip-path="url(#a)"><path fill="#fff" fill-rule="evenodd" d="M0 14.351C0 2.533 2.446 0 13.86 0h8.28C33.554 0 36 2.533 36 14.351c0 11.818-2.446 14.351-13.86 14.351h-1.65c-.083.102-.18.198-.29.286L13.63 34.58c-1.241 1-3.088.114-3.088-1.48v-4.49C1.958 28.065 0 24.923 0 14.351Zm11.892.28a2.379 2.379 0 1 1-4.757 0 2.379 2.379 0 0 1 4.757 0Zm8.326 0a2.379 2.379 0 1 1-4.757 0 2.379 2.379 0 0 1 4.757 0Zm8.325 0a2.379 2.379 0 1 1-4.757 0 2.379 2.379 0 0 1 4.757 0Z" clip-rule="evenodd"></path></g><defs><clipPath id="a"><path fill="#fff" d="M0 0h36v35H0z"></path></clipPath></defs></svg>